# xmcd
#
# Track frame offsets:
#	150
#	11471
#	32272
#	48819
#	67735
#	84402
#	105087
#	132014
#	149258
#	168331
#	185857
#	207973
#	238285
#
# Disc length: 3443 seconds
#
# Revision: 15
# Processed by: cddbd v1.5.2PL0 Copyright (c) Steve Scherf et al.
# Submitted via: Jack! The Knife 20 Magnifico
#
DISCID=9d0d710d
DTITLE=Grave Digger - Knights Of The Cross
DYEAR=1998
DGENRE=Metal
TTITLE0=Deus Lo Vult
TTITLE1=Knights Of The Cross
TTITLE2=Monks Of War
TTITLE3=Heroes Of This Time
TTITLE4=Fanatic Assassins
TTITLE5=Lionheart
TTITLE6=The Keeper Of The Holy Grail
TTITLE7=Inquisition
TTITLE8=Baphomet
TTITLE9=Over The Sea
TTITLE10=The Curse Of Jacques
TTITLE11=The Battle Of Bannockburn
TTITLE12=Children Of The Grave
EXTD=Chris Boltendahl and Uwe Lulis
EXTT0=Hans Peter Katzenburg
EXTT1=Boltendahl, Lulis
EXTT2=Boltendahl, Lulis
EXTT3=Boltendahl, Lulis
EXTT4=Boltendahl, Lulis
EXTT5=Boltendahl, Lulis
EXTT6=Boltendahl, Lulis
EXTT7=Boltendahl, Lulis
EXTT8=Boltendahl, Lulis
EXTT9=Boltendahl, Lulis
EXTT10=Boltendahl, Lulis
EXTT11=Boltendahl, Lulis
EXTT12=Osbourne, Iommi, Butler, Ward
PLAYORDER=
